<svg width="74" height="16" viewBox="0 0 74 16" fill="none" xmlns="http://www.w3.org/2000/svg">
<path d="M71.6004 2.23452C70.1093 0.844011 68.0764 0.0212402 65.7884 0.0212402C63.5003 0.0212402 61.4675 0.844011 59.9763 2.23452C58.4385 3.67058 57.5762 5.71688 57.5762 8.0091C57.5762 10.3013 58.4385 12.3476 59.9763 13.7867C61.4675 15.1772 63.5003 16 65.7884 16C68.0764 16 70.1093 15.1772 71.6004 13.7867C73.1382 12.3507 74.0006 10.3044 74.0006 8.0091C74.0006 5.71384 73.1382 3.67058 71.6004 2.23452ZM68.9948 11.0451C68.2103 11.871 67.1363 12.3567 65.7853 12.3567C64.4342 12.3567 63.3602 11.871 62.5757 11.0451C61.8535 10.2588 61.4363 9.24781 61.4363 8.01213C61.4363 6.77646 61.8317 5.76242 62.5539 4.97912C63.3384 4.15331 64.4342 3.66754 65.7821 3.66754C67.1332 3.66754 68.2072 4.15331 68.9917 4.97912C69.7139 5.76545 70.1311 6.77646 70.1311 8.01213C70.1311 9.24781 69.7201 10.2588 68.9948 11.0451Z" fill="#FF2233"/>
<path fill-rule="evenodd" clip-rule="evenodd" d="M54.311 10.523L54.2362 10.614C53.7164 11.2455 53.1342 11.6888 52.4525 11.9712C51.917 12.211 51.254 12.3537 50.5442 12.3537C49.1651 12.3537 47.9448 11.9044 47.1447 11.0634C46.4038 10.2983 45.9867 9.20835 45.9867 7.98786C45.9867 6.56698 46.5688 5.3981 47.537 4.6148C48.3246 3.98937 49.2336 3.62505 50.5473 3.62505C51.1699 3.62505 51.7707 3.74649 52.3124 3.94991C52.9506 4.18975 53.4922 4.57533 54.037 5.10664L54.1148 5.18254L56.9321 2.87818L56.8574 2.7871C56.0574 1.8186 55.1079 1.1203 54.2144 0.719545C53.1716 0.251992 51.8984 0 50.457 0C48.2374 0 46.27 0.716509 44.7975 1.96129C43.1102 3.4186 42.1172 5.52865 42.1172 7.99089C42.1172 10.0524 42.8301 11.8892 44.0628 13.2827C45.5758 14.9495 47.8234 15.9818 50.457 15.9818C52.1349 15.9818 53.4767 15.666 54.5849 15.0528C55.5842 14.5032 56.3842 13.7199 57.094 12.712L57.1594 12.6178L54.311 10.523Z" fill="#FF2233"/>
<path fill-rule="evenodd" clip-rule="evenodd" d="M37.7384 0.400757L34.423 6.77343L31.1326 0.400757H26.6934L32.4929 10.7082V15.581H36.3562V10.7082L42.1558 0.400757H37.7384Z" fill="#FF2233"/>
<path d="M23.4694 0.400757H18.3422L12.5488 15.581H16.493L17.5982 12.6543H24.2788L25.4057 15.581H29.3281L23.4694 0.400757ZM20.9167 3.89222L22.9713 9.23871H18.9025L20.9167 3.89222Z" fill="#FF2233"/>
<path d="M12.1782 2.37421C11.6116 1.69413 10.8925 1.16282 10.0022 0.801531C9.32043 0.522214 8.28068 0.397736 7.48685 0.397736H0V15.578H3.86328V11.4733H7.48685C8.43633 11.4733 9.58193 11.2638 10.41 10.8812C11.5245 10.3712 12.3525 9.47553 12.8506 8.41595C13.1962 7.6539 13.3923 6.80684 13.3923 5.91728C13.3954 4.58142 12.9596 3.35485 12.1782 2.37421ZM8.60755 7.86035C8.32426 7.98787 7.84797 8.13967 7.18489 8.13967H3.65159V3.77383H6.99499C7.56779 3.77383 8.1188 3.8558 8.43322 3.98939C8.87838 4.17459 9.1928 4.43569 9.39515 4.78787C9.57259 5.09451 9.65664 5.46187 9.65664 5.91728C9.65664 6.89793 9.31421 7.53246 8.60755 7.86035Z" fill="#FF2233"/>
</svg>
