<svg width="191" height="22" viewBox="0 0 191 22" fill="none" xmlns="http://www.w3.org/2000/svg">
<path d="M58.0539 6.31563C56.8449 5.18583 55.1967 4.51733 53.3415 4.51733C51.4863 4.51733 49.838 5.18583 48.629 6.31563C47.3821 7.48242 46.6829 9.14504 46.6829 11.0075C46.6829 12.8699 47.3821 14.5325 48.629 15.7018C49.838 16.8316 51.4863 17.5001 53.3415 17.5001C55.1967 17.5001 56.8449 16.8316 58.0539 15.7018C59.3008 14.535 60 12.8724 60 11.0075C60 9.14257 59.3008 7.48242 58.0539 6.31563ZM55.9413 13.4743C55.3052 14.1452 54.4344 14.5399 53.3389 14.5399C52.2435 14.5399 51.3727 14.1452 50.7366 13.4743C50.151 12.8354 49.8128 12.0139 49.8128 11.0099C49.8128 10.0059 50.1333 9.18204 50.7189 8.54561C51.355 7.87464 52.2435 7.47995 53.3364 7.47995C54.4319 7.47995 55.3027 7.87464 55.9387 8.54561C56.5243 9.18451 56.8626 10.0059 56.8626 11.0099C56.8626 12.0139 56.5294 12.8354 55.9413 13.4743Z" fill="#111111"/>
<path fill-rule="evenodd" clip-rule="evenodd" d="M44.0352 13.0499L43.9746 13.1239C43.5531 13.637 43.0811 13.9972 42.5283 14.2266C42.0941 14.4214 41.5565 14.5374 40.981 14.5374C39.8628 14.5374 38.8734 14.1723 38.2247 13.489C37.624 12.8674 37.2858 11.9818 37.2858 10.9901C37.2858 9.83567 37.7578 8.88596 38.5427 8.24953C39.1813 7.74137 39.9184 7.44535 40.9835 7.44535C41.4884 7.44535 41.9755 7.54402 42.4147 7.7093C42.9321 7.90417 43.3713 8.21746 43.813 8.64915L43.8761 8.71082L46.1604 6.83852L46.0999 6.76452C45.4512 5.97761 44.6813 5.41025 43.9569 5.08463C43.1113 4.70474 42.079 4.5 40.9103 4.5C39.1107 4.5 37.5154 5.08216 36.3216 6.09355C34.9535 7.27761 34.1483 8.99203 34.1483 10.9926C34.1483 12.6676 34.7263 14.16 35.7259 15.2922C36.9526 16.6465 38.775 17.4852 40.9103 17.4852C42.2708 17.4852 43.3587 17.2287 44.2573 16.7304C45.0675 16.2839 45.7162 15.6474 46.2917 14.8285L46.3447 14.752L44.0352 13.0499Z" fill="#111111"/>
<path fill-rule="evenodd" clip-rule="evenodd" d="M30.5995 4.82568L27.9113 10.0035L25.2434 4.82568H21.644L26.3464 13.2004V17.1596H29.4788V13.2004L34.1812 4.82568H30.5995Z" fill="#111111"/>
<path d="M19.029 4.82568H14.8719L10.1746 17.1596H13.3726L14.2686 14.7817H19.6853L20.599 17.1596H23.7794L19.029 4.82568ZM16.9593 7.6625L18.6252 12.0065H15.3262L16.9593 7.6625Z" fill="#111111"/>
<path d="M9.87422 6.42912C9.41483 5.87656 8.83177 5.44487 8.10988 5.15133C7.55711 4.92438 6.71406 4.82324 6.07042 4.82324H0V17.1572H3.13239V13.8221H6.07042C6.84027 13.8221 7.76913 13.6519 8.44054 13.3411C9.34416 12.9267 10.0156 12.199 10.4194 11.338C10.6996 10.7189 10.8586 10.0306 10.8586 9.30787C10.8611 8.22248 10.5078 7.2259 9.87422 6.42912ZM6.97909 10.8866C6.7494 10.9902 6.36322 11.1136 5.82559 11.1136H2.96075V7.56632H5.67162C6.13605 7.56632 6.58281 7.63292 6.83774 7.74146C7.19869 7.89193 7.45362 8.10408 7.61769 8.39023C7.76156 8.63937 7.82971 8.93785 7.82971 9.30787C7.82971 10.1046 7.55206 10.6202 6.97909 10.8866Z" fill="#111111"/>
<path d="M76.8984 4.23438V12.4375H74.9922V4.23438H76.8984ZM74.0078 4.46875V12.2812H72.1328V9.1875H70.8359V11.5625H65.1797V5.25H70.8359V7.5625H72.1328V4.46875H74.0078ZM67.0547 6.76562V10.0938H68.9766V6.76562H67.0547ZM76.8984 13V18.2812H67.2109V13H76.8984ZM69.1641 14.5469V16.6875H74.9297V14.5469H69.1641ZM90.5078 4.21875V18.4688H88.5391V10.8438H85.8984V15.0938H79.0391V5.3125H81.0234V8.76562H83.9453V5.3125H85.8984V9.23438H88.5391V4.21875H90.5078ZM81.0234 13.5H83.9453V10.3281H81.0234V13.5ZM97.7891 5.96875C97.7734 7.64062 98.8047 9.3125 101.133 9.98438L100.18 11.5312C98.5391 11.0469 97.4062 10.0625 96.7578 8.79688C96.1172 10.1719 94.9453 11.2578 93.2422 11.7656L92.2891 10.2031C94.6641 9.5 95.7109 7.70312 95.7109 5.96875V4.64062H97.7891V5.96875ZM104.242 4.21875V11.8594H102.242V4.21875H104.242ZM96.6953 12.4844V13.8125H102.258V12.4844H104.242V18.2812H94.7266V12.4844H96.6953ZM96.6953 16.6719H102.258V15.3594H96.6953V16.6719Z" fill="#111111"/>
<path d="M108.799 12V4.92969H110.068V10.9258H113.193V12H108.799ZM115.479 4.92969V12H114.209V4.92969H115.479ZM121.533 7.18555C121.309 6.43359 120.723 5.97461 119.863 5.97461C118.721 5.97461 117.9 6.86328 117.9 8.45508C117.9 10.0664 118.711 10.9551 119.893 10.9551C120.957 10.9551 121.641 10.3105 121.66 9.30469H120.02V8.29883H122.891V9.14844C122.891 10.9648 121.641 12.0977 119.893 12.0977C117.939 12.0977 116.621 10.7109 116.621 8.46484C116.621 6.19922 117.998 4.83203 119.854 4.83203C121.416 4.83203 122.617 5.79883 122.832 7.18555H121.533ZM124.043 12V4.92969H125.312V7.92773H128.604V4.92969H129.883V12H128.604V8.99219H125.312V12H124.043ZM130.879 5.99414V4.92969H136.514V5.99414H134.336V12H133.066V5.99414H130.879Z" fill="#111111"/>
<path d="M153.758 4.21875V8.09375H155.68V9.73438H153.758V14.5H151.758V4.21875H153.758ZM149.445 5.35938V6.95312H145.023V10.5469C147.594 10.5312 149.008 10.4531 150.602 10.1094L150.805 11.7031C149.023 12.0781 147.383 12.1562 144.227 12.1562H143.023V5.35938H149.445ZM154.273 16.5938V18.1875H144.539V13.4062H146.523V16.5938H154.273ZM167.711 4.75V5.59375C167.711 6.4375 167.711 7.57812 167.461 8.98438L165.492 8.82812C165.656 7.80469 165.695 7.00781 165.711 6.3125H157.789V4.75H167.711ZM169.242 9.5625V11.1094H156.336V9.5625H161.18V7.46875H163.148V9.5625H169.242ZM167.711 12V15.7969H159.773V16.7969H168.102V18.3281H157.789V14.4531H165.742V13.5781H157.773V12H167.711ZM177.664 5.6875H180.023V13.0312C180.023 15.5156 178.148 17.1562 175.336 17.1562C172.523 17.1562 170.664 15.5156 170.664 13.0312V5.6875H173.008V12.8438C173.008 14.1406 173.93 15.0938 175.336 15.0938C176.758 15.0938 177.664 14.1406 177.664 12.8438V5.6875ZM181.93 17V5.6875H186.367C188.945 5.6875 190.414 7.26562 190.414 9.5C190.414 11.7656 188.914 13.3125 186.305 13.3125H184.273V17H181.93ZM184.273 11.4219H185.93C187.32 11.4219 187.992 10.6406 187.992 9.5C187.992 8.375 187.32 7.60938 185.93 7.60938H184.273V11.4219Z" fill="#FF2233"/>
</svg>
